<mxfile host="app.diagrams.net" modified="2024-05-16T15:37:42.936Z" agent="Mozilla/5.0 (Macintosh; Intel Mac OS X 10_15_7) AppleWebKit/537.36 (KHTML, like Gecko) Chrome/124.0.0.0 Safari/537.36" etag="IpPwjAWgsbU6GAL3pEFU" version="24.4.2" type="device">
  <diagram name="Страница — 1" id="6QkFDEe__u_y417hXvJI">
    <mxGraphModel dx="477" dy="607" grid="1" gridSize="10" guides="1" tooltips="1" connect="1" arrows="1" fold="1" page="1" pageScale="1" pageWidth="827" pageHeight="1169" math="0" shadow="0">
      <root>
        <mxCell id="0" />
        <mxCell id="1" parent="0" />
        <mxCell id="B9JHcCJD3EHTwMot7XJZ-13" style="edgeStyle=orthogonalEdgeStyle;rounded=0;orthogonalLoop=1;jettySize=auto;html=1;exitX=1;exitY=0.3333333333333333;exitDx=0;exitDy=0;exitPerimeter=0;entryX=0;entryY=0.5;entryDx=0;entryDy=0;" edge="1" parent="1" source="B9JHcCJD3EHTwMot7XJZ-1" target="B9JHcCJD3EHTwMot7XJZ-8">
          <mxGeometry relative="1" as="geometry">
            <Array as="points">
              <mxPoint x="230" y="290" />
              <mxPoint x="230" y="215" />
            </Array>
          </mxGeometry>
        </mxCell>
        <mxCell id="B9JHcCJD3EHTwMot7XJZ-14" style="edgeStyle=orthogonalEdgeStyle;rounded=0;orthogonalLoop=1;jettySize=auto;html=1;exitX=1;exitY=0.3333333333333333;exitDx=0;exitDy=0;exitPerimeter=0;entryX=0;entryY=0.5;entryDx=0;entryDy=0;" edge="1" parent="1" source="B9JHcCJD3EHTwMot7XJZ-1" target="B9JHcCJD3EHTwMot7XJZ-5">
          <mxGeometry relative="1" as="geometry">
            <Array as="points">
              <mxPoint x="230" y="290" />
              <mxPoint x="230" y="100" />
            </Array>
          </mxGeometry>
        </mxCell>
        <mxCell id="B9JHcCJD3EHTwMot7XJZ-15" style="edgeStyle=orthogonalEdgeStyle;rounded=0;orthogonalLoop=1;jettySize=auto;html=1;entryX=0;entryY=0.5;entryDx=0;entryDy=0;" edge="1" parent="1" target="B9JHcCJD3EHTwMot7XJZ-4">
          <mxGeometry relative="1" as="geometry">
            <mxPoint x="150" y="290" as="sourcePoint" />
            <mxPoint x="280" y="315" as="targetPoint" />
            <Array as="points">
              <mxPoint x="230" y="290" />
              <mxPoint x="230" y="380" />
            </Array>
          </mxGeometry>
        </mxCell>
        <mxCell id="B9JHcCJD3EHTwMot7XJZ-16" style="edgeStyle=orthogonalEdgeStyle;rounded=0;orthogonalLoop=1;jettySize=auto;html=1;exitX=1;exitY=0.3333333333333333;exitDx=0;exitDy=0;exitPerimeter=0;entryX=0;entryY=0.5;entryDx=0;entryDy=0;" edge="1" parent="1" source="B9JHcCJD3EHTwMot7XJZ-1" target="B9JHcCJD3EHTwMot7XJZ-7">
          <mxGeometry relative="1" as="geometry">
            <Array as="points">
              <mxPoint x="230" y="290" />
              <mxPoint x="230" y="270" />
            </Array>
          </mxGeometry>
        </mxCell>
        <mxCell id="B9JHcCJD3EHTwMot7XJZ-17" style="edgeStyle=orthogonalEdgeStyle;rounded=0;orthogonalLoop=1;jettySize=auto;html=1;exitX=1;exitY=0.3333333333333333;exitDx=0;exitDy=0;exitPerimeter=0;entryX=0;entryY=0.5;entryDx=0;entryDy=0;" edge="1" parent="1" source="B9JHcCJD3EHTwMot7XJZ-1" target="B9JHcCJD3EHTwMot7XJZ-6">
          <mxGeometry relative="1" as="geometry" />
        </mxCell>
        <mxCell id="B9JHcCJD3EHTwMot7XJZ-19" style="edgeStyle=orthogonalEdgeStyle;rounded=0;orthogonalLoop=1;jettySize=auto;html=1;exitX=1;exitY=0.3333333333333333;exitDx=0;exitDy=0;exitPerimeter=0;entryX=0;entryY=0.5;entryDx=0;entryDy=0;" edge="1" parent="1" source="B9JHcCJD3EHTwMot7XJZ-1" target="B9JHcCJD3EHTwMot7XJZ-18">
          <mxGeometry relative="1" as="geometry">
            <Array as="points">
              <mxPoint x="230" y="290" />
              <mxPoint x="230" y="480" />
            </Array>
          </mxGeometry>
        </mxCell>
        <mxCell id="B9JHcCJD3EHTwMot7XJZ-20" style="edgeStyle=orthogonalEdgeStyle;rounded=0;orthogonalLoop=1;jettySize=auto;html=1;exitX=1;exitY=0.3333333333333333;exitDx=0;exitDy=0;exitPerimeter=0;entryX=0;entryY=0.5;entryDx=0;entryDy=0;" edge="1" parent="1" source="B9JHcCJD3EHTwMot7XJZ-1" target="B9JHcCJD3EHTwMot7XJZ-3">
          <mxGeometry relative="1" as="geometry">
            <Array as="points">
              <mxPoint x="230" y="290" />
              <mxPoint x="230" y="430" />
            </Array>
          </mxGeometry>
        </mxCell>
        <mxCell id="B9JHcCJD3EHTwMot7XJZ-22" style="edgeStyle=orthogonalEdgeStyle;rounded=0;orthogonalLoop=1;jettySize=auto;html=1;exitX=1;exitY=0.3333333333333333;exitDx=0;exitDy=0;exitPerimeter=0;entryX=0;entryY=0.5;entryDx=0;entryDy=0;" edge="1" parent="1" source="B9JHcCJD3EHTwMot7XJZ-1" target="B9JHcCJD3EHTwMot7XJZ-21">
          <mxGeometry relative="1" as="geometry" />
        </mxCell>
        <mxCell id="B9JHcCJD3EHTwMot7XJZ-1" value="User" style="shape=umlActor;verticalLabelPosition=bottom;verticalAlign=top;html=1;outlineConnect=0;" vertex="1" parent="1">
          <mxGeometry x="120" y="270" width="30" height="60" as="geometry" />
        </mxCell>
        <mxCell id="B9JHcCJD3EHTwMot7XJZ-2" value="Plan App" style="swimlane;whiteSpace=wrap;html=1;" vertex="1" parent="1">
          <mxGeometry x="220" y="40" width="290" height="480" as="geometry" />
        </mxCell>
        <mxCell id="B9JHcCJD3EHTwMot7XJZ-3" value="логін" style="ellipse;whiteSpace=wrap;html=1;" vertex="1" parent="B9JHcCJD3EHTwMot7XJZ-2">
          <mxGeometry x="97" y="370" width="96.25" height="40" as="geometry" />
        </mxCell>
        <mxCell id="B9JHcCJD3EHTwMot7XJZ-5" value="створити план" style="ellipse;whiteSpace=wrap;html=1;" vertex="1" parent="B9JHcCJD3EHTwMot7XJZ-2">
          <mxGeometry x="84" y="40" width="100" height="40" as="geometry" />
        </mxCell>
        <mxCell id="B9JHcCJD3EHTwMot7XJZ-8" value="пошук за назвою плану" style="ellipse;whiteSpace=wrap;html=1;" vertex="1" parent="B9JHcCJD3EHTwMot7XJZ-2">
          <mxGeometry x="85" y="150" width="120" height="50" as="geometry" />
        </mxCell>
        <mxCell id="B9JHcCJD3EHTwMot7XJZ-7" value="редагувати профіль" style="ellipse;whiteSpace=wrap;html=1;" vertex="1" parent="B9JHcCJD3EHTwMot7XJZ-2">
          <mxGeometry x="85" y="210" width="105" height="40" as="geometry" />
        </mxCell>
        <mxCell id="B9JHcCJD3EHTwMot7XJZ-6" value="редагувати&lt;div&gt;&lt;span style=&quot;background-color: initial;&quot;&gt;план&lt;/span&gt;&lt;/div&gt;" style="ellipse;whiteSpace=wrap;html=1;" vertex="1" parent="B9JHcCJD3EHTwMot7XJZ-2">
          <mxGeometry x="90" y="260" width="110" height="50" as="geometry" />
        </mxCell>
        <mxCell id="B9JHcCJD3EHTwMot7XJZ-4" value="реєстрація" style="ellipse;whiteSpace=wrap;html=1;" vertex="1" parent="B9JHcCJD3EHTwMot7XJZ-2">
          <mxGeometry x="96.88" y="320" width="96.25" height="40" as="geometry" />
        </mxCell>
        <mxCell id="B9JHcCJD3EHTwMot7XJZ-18" value="вийти з&amp;nbsp;&lt;div&gt;системи&lt;/div&gt;" style="ellipse;whiteSpace=wrap;html=1;" vertex="1" parent="B9JHcCJD3EHTwMot7XJZ-2">
          <mxGeometry x="93.88" y="420" width="102.5" height="40" as="geometry" />
        </mxCell>
        <mxCell id="B9JHcCJD3EHTwMot7XJZ-21" value="видалити план" style="ellipse;whiteSpace=wrap;html=1;" vertex="1" parent="B9JHcCJD3EHTwMot7XJZ-2">
          <mxGeometry x="90" y="90" width="110" height="50" as="geometry" />
        </mxCell>
        <mxCell id="B9JHcCJD3EHTwMot7XJZ-23" value="Text" style="text;html=1;align=center;verticalAlign=middle;resizable=0;points=[];autosize=1;strokeColor=none;fillColor=none;" vertex="1" parent="1">
          <mxGeometry x="655" y="108" width="50" height="30" as="geometry" />
        </mxCell>
      </root>
    </mxGraphModel>
  </diagram>
</mxfile>
